<svg xmlns="http://www.w3.org/2000/svg" width="256" height="256"><path fill-opacity=".016" d="M0 128.004v128.004l128.25-.254 128.25-.254.254-127.75L257.008 0H0v128.004m.485.496c0 70.4.119 99.053.265 63.672.146-35.38.146-92.98 0-128C.604 29.153.485 58.1.485 128.5" fill="#393939" fill-rule="evenodd"/><path fill-opacity=".593" d="M106.097 3.612c-4.622.774-13.154 2.998-18.96 4.94C43.694 23.089 12.162 58.609 2.406 104c-2.534 11.791-2.534 36.209 0 48 9.747 45.347 41.299 80.918 84.635 95.414 66.072 22.102 137.92-12.356 161.418-77.414 3.226-8.932 6.489-23.042 6.519-28.191.012-2.03.472-3.969 1.022-4.309.559-.345 1-5.03 1-10.618 0-6.412-.359-9.778-1-9.382-.599.37-1.009-.911-1.022-3.191-.029-5.252-3.264-19.296-6.519-28.309C232.861 42.814 194.363 10.899 149 3.548c-11.581-1.877-31.498-1.847-42.903.064M.37 128c0 5.775.165 8.137.367 5.25.202-2.887.202-7.612 0-10.5S.37 122.225.37 128" fill="#393939" fill-rule="evenodd"/><path fill-opacity=".168" d="M113.63 2.99C48.592 11.205 1 64.027 1 128c0 58.795 40.365 108.927 98.623 122.487 33.474 7.792 70.091 1.057 99.377-18.276 46.347-30.596 66.994-88.509 50.404-141.382-13.949-44.456-50.594-76.837-97.652-86.289-9.572-1.923-28.936-2.71-38.122-1.55m-8.845 13.988c-17.7 3.733-32.205 10.209-45.924 20.505C34.313 55.906 18.949 81.341 14.452 111c-6.319 41.678 10.302 81.919 44.409 107.517C79.015 233.642 101.64 241 128 241c26.36 0 48.985-7.358 69.139-22.483 48.26-36.22 60.127-101.881 27.468-151.984-17.001-26.081-44.13-44.002-75.667-49.985-11.355-2.154-32.895-1.944-44.155.43M87.641 31.677c.318 3.753.867 9.941 1.219 13.751l.64 6.928 14 6.375c7.7 3.506 14.308 6.689 14.684 7.072.376.383-8.325 6.322-19.337 13.197-11.012 6.875-20.234 12.838-20.493 13.25-.26.412 11.48.75 26.087.75s26.559.395 26.559.878c0 .482-.675 1.437-1.5 2.122-.825.685-1.5 1.645-1.5 2.133 0 1.063 10.769 18.616 11.789 19.215.391.229 8.876 1.447 18.856 2.706l18.145 2.288 10.12-8.911c5.566-4.901 9.913-9.45 9.661-10.108-.779-2.029-27.101-34.63-30.688-38.009-3.75-3.531-6.724-4.201-36.883-8.319-8.525-1.164-15.793-2.426-16.151-2.805-.357-.38-5.931-6.99-12.386-14.69-6.455-7.7-12.111-14.145-12.569-14.323-.458-.178-.572 2.747-.253 6.5M68 44.833c0 1.066 16.087 38.521 16.944 39.45.668.724 31.049-17.166 31.049-18.283 0-.275-5.735-3.056-12.746-6.179A50349.97 50349.97 0 0179.25 49.12C73.063 46.358 68 44.429 68 44.833M83 117.5c0 11.825.151 21.5.335 21.5.365 0 21.594-21.609 34.137-34.75l7.875-8.25H83v21.5m22.75 5.176C95.438 133.373 87 142.474 87 142.901c0 1.112 36.068 16.364 36.85 15.583.763-.763 1.888-54.542 1.15-54.968-.275-.158-8.937 8.464-19.25 19.16m23.901-3.538c-.358 5.043-.651 16.831-.651 26.195v17.026l15.743 23.821L160.487 210h15.363c12.104 0 15.259-.273 14.871-1.285-.41-1.068-59.434-97.661-60.178-98.481-.133-.146-.534 3.861-.892 8.904m-58.134 37.845c-5.453 5.474-9.63 10.237-9.282 10.586.998.998 27.807 6.722 28.454 6.075.569-.568-7.388-24.436-8.627-25.878-.347-.404-5.092 3.744-10.545 9.217M87 149.381c0 .687 23.838 61.791 24.278 62.23.236.236 10.159.307 22.052.159l21.624-.27-15.872-23.508-15.873-23.508-17.514-7.742C88.755 149.254 87 148.563 87 149.381m-2.376 46.516C79.881 204.174 76 211.183 76 211.473c0 .29 6.75.527 15 .527 9.491 0 15-.373 15-1.016 0-1.365-10.989-28.263-11.974-29.31-.428-.454-4.658 5.947-9.402 14.223" fill="#393939" fill-rule="evenodd"/><path fill-opacity=".741" d="M112.5 9.063C62.71 15.84 23.361 50.333 10.258 98.687c-2.453 9.05-2.66 11.328-2.66 29.313s.207 20.263 2.66 29.313c12.547 46.304 48.883 79.666 96.742 88.824 8.382 1.604 33.618 1.604 42 0 26.946-5.156 50.461-18.018 68.657-37.55 13.375-14.358 22.69-31.364 28.085-51.274 2.453-9.05 2.66-11.328 2.66-29.313s-.207-20.263-2.66-29.313c-12.258-45.237-48.352-79.18-93.771-88.184-9.601-1.903-30.474-2.665-39.471-1.44m-3.771 6.384c-41.692 7.356-75.96 35.986-90.06 75.241-8.085 22.51-8.085 52.114 0 74.624 12.384 34.478 41.546 61.963 76.431 72.035 23.983 6.925 50.866 5.929 74.016-2.741 36.369-13.622 64.089-45.745 72.146-83.606 2.783-13.074 2.783-32.926 0-46-9.294-43.675-44.373-78.841-88.262-88.479-10.262-2.253-34.284-2.836-44.271-1.074M88.55 36.019c1.221 17.226-.151 15.346 16.699 22.894 8.087 3.623 14.704 6.812 14.706 7.087.002.275-9.026 6.125-20.063 13-11.036 6.875-20.279 12.838-20.538 13.25-.26.412 11.505.75 26.144.75h26.615l-1.712 2.898c-1.701 2.88-1.684 2.942 2.936 10.75 2.556 4.318 5.013 8.413 5.461 9.098.493.754 8.103 2.209 19.259 3.684 17.589 2.325 18.536 2.356 20.443.69 1.1-.962 5.681-5.017 10.18-9.013l8.18-7.265-12.849-16.171c-7.066-8.894-15.022-18.266-17.68-20.825l-4.831-4.655-21.75-3.095c-11.962-1.703-22.762-3.118-24-3.145-1.649-.036-5.589-4.041-14.75-14.998-6.875-8.222-12.649-14.949-12.83-14.951-.182-.001-.011 4.506.38 10.017M76.461 63.968c4.528 10.482 8.504 19.33 8.835 19.662.609.609 29.722-16.673 29.683-17.62-.017-.394-42.099-19.464-45.912-20.805-.461-.163 2.866 8.281 7.394 18.763m26.789 32.781L83 97.041v20.48c0 11.263.299 20.479.664 20.479.68 0 31.38-31.508 37.268-38.25 1.801-2.062 3.116-3.647 2.922-3.522-.195.126-9.466.36-20.604.521m2.424 26.677c-17.743 18.44-18.692 19.619-16.5 20.5 1.279.514 9.526 4.055 18.326 7.869l16 6.934.755-24.615c.415-13.538.64-25.883.5-27.434-.235-2.601-1.721-1.296-19.081 16.746m24.131 12.613l-.325 25.461 15.324 23.605 15.325 23.604 15.047.701c8.276.385 15.191.556 15.368.379.245-.244-47.69-79.049-58.545-96.25-1.858-2.944-1.871-2.814-2.194 22.5M72 157.5c-5.168 5.19-9.195 9.625-8.949 9.856.247.23 5.849 1.612 12.449 3.07 6.6 1.458 12.791 2.89 13.758 3.183 1.469.443 1.021-1.559-2.725-12.181-2.466-6.992-4.63-12.859-4.81-13.038-.179-.179-4.555 3.92-9.723 9.11m16.395-5.865c.384 1.026 5.671 14.736 11.749 30.468l11.051 28.603 11.152.642c15.107.871 31.664.819 31.605-.098-.026-.412-7.114-11.053-15.75-23.645L122.5 164.71l-15.424-6.843c-19.256-8.543-19.586-8.653-18.681-6.232m-3.284 44.415C80.65 203.839 77 210.389 77 210.605c0 .217 6.495.395 14.433.395h14.432l-5.759-13.993c-3.167-7.696-6.012-14.246-6.321-14.556-.31-.309-4.213 5.81-8.674 13.599" fill="#393939" fill-rule="evenodd"/></svg>